<svg width="100" height="100" viewBox="0 0 100 100" fill="none" xmlns="http://www.w3.org/2000/svg">
<path d="M18.8409 50.703L28.3331 47.2458C28.6261 47.1288 28.9777 47.0702 29.329 47.0702L90.1495 47.0702C91.7903 47.0702 93.0791 48.3591 93.0791 49.9999L93.0791 91.2109C93.0791 96.074 89.1536 99.9999 84.2901 99.9999L25.6962 99.9999C20.8327 99.9999 16.9071 96.074 16.9071 91.2109L16.9071 53.4567C16.9071 52.2264 17.669 51.1132 18.8409 50.703Z" fill="#FC1A40"/>
<path d="M16.9072 53.4567L16.9072 91.2109C16.9072 96.074 20.8328 99.9999 25.6963 99.9999H54.9932L54.9932 47.0702L29.3291 47.0702C28.9775 47.0702 28.6259 47.1288 28.3332 47.2458L18.841 50.703C17.6691 51.1132 16.9072 52.2264 16.9072 53.4567Z" fill="#C60034"/>
<path d="M17.9617 19.0992C18.9576 15.0562 21.9461 11.8924 25.9891 10.6031C29.9734 9.37244 34.251 10.2515 37.3563 13.0639L44.1534 19.0406L45.5008 10.076C46.1453 5.97439 48.7821 2.51716 52.7077 0.876724C53.4694 0.583559 54.2311 0.349184 54.9928 0.231996C58.2155 -0.412537 61.5553 0.29059 64.2509 2.28298C67.8251 4.86111 69.6413 9.19705 69.0556 13.5328C68.4108 17.8687 65.4811 21.5602 61.3212 23.025L54.9928 25.3102L47.1998 28.1813C47.1413 28.1813 47.1413 28.1813 47.1413 28.1813L33.6061 33.1615C32.2586 33.6305 30.8524 33.8651 29.5047 33.8651C26.6332 33.8651 23.8209 32.81 21.5943 30.818C18.3133 27.8883 16.907 23.3764 17.9617 19.0992Z" fill="#FE9923"/>
<path d="M21.5947 30.818C23.8213 32.81 26.6338 33.8651 29.5051 33.8651C30.8525 33.8651 32.2588 33.6305 33.6064 33.1616L47.1416 28.1813C47.1416 28.1813 47.1416 28.1813 47.2002 28.1813L54.9932 25.3102L54.9932 0.231812C54.2315 0.349195 53.4697 0.583375 52.708 0.876539C48.7824 2.51697 46.1455 5.97421 45.5012 10.0758L44.1537 19.0404L37.3566 13.0637C34.2514 10.2514 29.9738 9.37226 25.9894 10.6029C21.9465 11.8922 18.9582 15.0561 17.9621 19.099C16.9072 23.3764 18.3135 27.8883 21.5947 30.818Z" fill="#FE8821"/>
<path d="M6.88751 45.7223L10.8719 56.738C11.3408 57.9098 12.4541 58.613 13.626 58.613C13.9776 58.613 14.3291 58.5544 14.6219 58.4374L44.9151 47.4217L47.6688 38.3397L54.9931 39.9801L61.4382 41.445L91.7314 30.4293C93.2549 29.8436 94.0164 28.1442 93.4892 26.6793L89.4463 15.6641C88.6845 13.4375 87.0437 11.6793 84.9343 10.6834C82.825 9.68751 80.4228 9.57013 78.1962 10.3904L54.9929 18.828L53.4106 19.4137C53.4106 19.4137 47.0827 30.8983 46.9067 30.8983C46.7893 30.8983 44.27 29.492 41.8091 28.1442C39.3487 26.7965 36.8876 25.3905 36.8876 25.3905L12.1611 34.4137C9.93458 35.234 8.17677 36.8749 7.18086 38.9842C6.18438 41.0934 6.06739 43.496 6.88751 45.7223Z" fill="#FF3E75"/>
<path d="M6.88759 45.7224L10.872 56.738C11.3409 57.9099 12.4542 58.613 13.6261 58.613C13.9776 58.613 14.3292 58.5544 14.622 58.4374L44.9152 47.4218L47.6689 38.3397L54.9932 39.9802L54.9932 18.828L53.4109 19.4137C53.4109 19.4137 47.083 30.8983 46.907 30.8983C46.7896 30.8983 44.2703 29.4921 41.8094 28.1442C39.3488 26.7966 36.8877 25.3905 36.8877 25.3905L12.1612 34.4138C9.93466 35.2341 8.17685 36.8749 7.18095 38.9843C6.18446 41.0935 6.06747 43.496 6.88759 45.7224Z" fill="#FC1A40"/>
<path d="M63.7822 47.0702L63.7822 99.9999H46.2041L46.2041 47.0702H63.7822Z" fill="#FCBF29"/>
<path d="M53.4111 19.4137L54.9934 23.7496L61.4385 41.4452L54.9934 43.7891L47.6691 46.4259L44.9154 47.4218L36.8877 25.3905L53.4111 19.4137Z" fill="#FCBF29"/>
<path d="M46.2034 47.0702H54.9924L54.9924 99.9999H46.2034L46.2034 47.0702Z" fill="#FE9923"/>
<path d="M36.8877 25.3905L44.9152 47.4218L47.6689 46.4257L54.9932 43.7889L54.9932 23.7496L53.4111 19.4137L36.8877 25.3905Z" fill="#FE9923"/>
</svg>
